<svg xmlns="http://www.w3.org/2000/svg" width="162" height="19" viewBox="0 0 162 19"><path d="M161.8 17.88c.15.07.2.2.2.38 0 .28-.1.41-.22.41h-3.47c-.15 0-.33-.1-.46-.21-1.34-1.35-2.84-3.09-4.1-4.67-1.78-2.23-3.17-3.63-3.73-3.63h-.5c.07.92.1 2.19.1 3.4v4.88c0 .1-.13.23-.23.23h-2.78c-.13 0-.23-.13-.23-.23V.88c0-.13.1-.26.23-.26h2.78c.1 0 .23.13.23.26v4.21c0 1.08-.03 2.18-.08 3.05h.48c.44 0 1.7-1.31 3.45-3.43 1.01-1.2 2.23-2.68 3.37-3.89.12-.12.25-.2.4-.2h3.24c.13 0 .21.13.21.28 0 .13-.05.23-.13.28-.66.36-2.38 2.15-4.61 4.63-1.32 1.41-2.56 2.68-3.11 3.02.5.2 1.95 1.79 3.67 3.7 2.08 2.35 4.53 4.91 5.29 5.35zM134.39 19c-5.04 0-9.12-3.78-9.12-9.64 0-5.72 4.23-9.33 9.12-9.33 4.86 0 9.11 3.5 9.11 9.33 0 5.78-3.84 9.64-9.11 9.64zm.02-16.33c-3.29 0-5.57 2.12-5.57 6.69 0 4.2 1.95 7.01 5.55 7.01 3.72 0 5.54-2.79 5.54-7.01 0-4.55-2.28-6.69-5.52-6.69zM114.09 19c-5.04 0-9.12-3.78-9.12-9.64 0-5.72 4.23-9.33 9.12-9.33 4.86 0 9.12 3.5 9.12 9.33 0 5.78-3.85 9.64-9.12 9.64zm.02-16.33c-3.29 0-5.57 2.12-5.57 6.69 0 4.2 1.95 7.01 5.55 7.01 3.72 0 5.55-2.79 5.55-7.01 0-4.55-2.28-6.69-5.53-6.69zm-11 11.22c0 2.94-2.2 4.78-5.98 4.78h-7.16c-.13 0-.23-.13-.23-.23V.88c0-.13.1-.26.23-.26h6.13c4.61 0 5.92 2.25 5.92 4.27 0 2.17-1.85 3.6-3.87 4.06 2.61.21 4.96 2.15 4.96 4.94zm-4.4-8.34c0-1.71-.97-2.55-3.25-2.55-.76 0-1.8-.03-2.58-.08.08.92.1 1.79.1 2.66 0 .87-.02 1.84-.1 2.68.68-.07 1.44-.1 2.2-.1 2.59 0 3.63-1.05 3.63-2.61zm-2.94 4.78c-.94 0-2.03-.02-2.89-.07.08.94.1 1.97.1 3.04 0 1.02-.02 2.02-.1 3.04 1.14-.05 2.48-.07 3.67-.07 2.23 0 3.24-.95 3.24-2.84 0-1.87-1.16-3.1-4.02-3.1zm-9.96 3.8L81.6 6.77c-.08-.13.01-.29.16-.29h5.03c.08 0 .16.06.18.14.28.88.42 1.82.42 2.8 0 1.72-.45 3.33-1.25 4.71-.07.13-.26.13-.33 0zm-8.26-9.12c-.14 0-.23-.17-.16-.29L79.9.32c.05-.07.13-.11.21-.09 2.58.58 4.75 2.24 6.04 4.48.07.13-.02.29-.17.29l-8.43.01zm-3.52 2.64c-.08.13-.26.13-.34 0l-2.51-4.4a.182.182 0 0 1 .03-.22A9.222 9.222 0 0 1 78.06 0c.15 0 .24.16.17.29l-4.2 7.36zm.33 4.71h-5.03c-.08 0-.16-.06-.18-.14a9.526 9.526 0 0 1 .83-7.52c.08-.13.26-.13.33 0l4.22 7.37c.07.13-.02.29-.17.29zM65.18 3.2c-1.12 0-2.21-.02-3.32-.1.05.95.08 1.92.08 2.86v12.48c0 .1-.13.23-.23.23h-2.76c-.13 0-.23-.13-.23-.23V5.91c0-.94.02-1.92.08-2.81-1.02.08-2.01.1-3.02.1-1.16 0-2.05.05-3.22.05-.12 0-.2-.07-.17-.2l.33-2.2c.02-.15.07-.23.17-.23h15.1c.13 0 .18.08.18.2v2.25c0 .11-.05.18-.18.18-.86 0-1.93-.05-2.81-.05zM42.14 19c-5.04 0-9.11-3.78-9.11-9.64 0-5.72 4.23-9.33 9.11-9.33 4.87 0 9.12 3.5 9.12 9.33 0 5.78-3.85 9.64-9.12 9.64zm.03-16.33c-3.29 0-5.57 2.12-5.57 6.69 0 4.2 1.95 7.01 5.54 7.01 3.73 0 5.55-2.79 5.55-7.01 0-4.55-2.28-6.69-5.52-6.69zm-15.13 16c-.13 0-.23-.13-.23-.23v-4.48c0-1.2 0-2.42.05-3.57-1.01.05-1.62.05-2.48.05h-3.93c-.86 0-1.49 0-2.51-.05.06 1.15.08 2.37.08 3.57v4.48c0 .1-.13.23-.23.23h-2.78c-.13 0-.23-.13-.23-.23V.88c0-.13.1-.26.23-.26h2.78c.1 0 .23.13.23.26v3.75c0 1.08-.02 2.18-.08 3.2.79-.05 1.65-.08 2.56-.08h3.83c.91 0 1.75.03 2.53.08-.05-1.02-.05-2.12-.05-3.2V.88c0-.13.1-.26.23-.26h2.76c.1 0 .23.13.23.26v17.56c0 .1-.13.23-.23.23h-2.76zM5.6 12.07c-.99 0-1.82-.02-2.45-.07.07.89.1 2.14.1 3.35v3.09c0 .1-.13.23-.23.23H.23c-.12 0-.23-.13-.23-.23V.95C0 .77.13.62.23.62h5.65c4.41 0 6.49 2.63 6.49 5.73 0 3.5-2.39 5.72-6.77 5.72zm.03-9.05c-.84 0-1.67-.02-2.46-.07.05.84.08 2.37.08 3.32 0 1.1-.03 2.61-.08 3.5.66-.05 1.47-.05 2.1-.05C7.73 9.72 9 8.7 9 6.37c0-1.94-.97-3.35-3.37-3.35zm72.93 10.81c.14 0 .24.16.16.29l-2.51 4.39c-.04.08-.13.11-.21.09-2.57-.58-4.74-2.24-6.02-4.48-.08-.12.02-.28.16-.28l8.42-.01zm3.54-2.65c.07-.12.25-.12.33 0l2.51 4.4c.04.07.03.16-.02.23-1.71 1.86-4.15 3.03-6.86 3.03h-.01c-.15-.01-.24-.17-.17-.29l4.22-7.37z"/></svg>